<?xml version="1.0" standalone="no"?>
<!DOCTYPE svg PUBLIC "-//W3C//DTD SVG 20010904//EN"
 "http://www.w3.org/TR/2001/REC-SVG-20010904/DTD/svg10.dtd">
<svg version="1.0" xmlns="http://www.w3.org/2000/svg"
 width="1600.000000pt" height="1600.000000pt" viewBox="0 0 1600.000000 1600.000000"
 preserveAspectRatio="xMidYMid meet">

<g transform="translate(0.000000,1600.000000) scale(0.100000,-0.100000)"
fill="#6868AC" stroke="none">
<path d="M7700 15989 c-2281 -79 -4430 -1149 -5895 -2934 -979 -1192 -1604
-2700 -1759 -4245 -53 -521 -53 -1099 0 -1620 166 -1654 851 -3219 1958 -4480
141 -160 444 -468 611 -620 1263 -1148 2844 -1859 4537 -2040 533 -56 1128
-58 1658 -4 2216 224 4247 1372 5586 3157 800 1066 1319 2310 1513 3627 62
422 83 719 83 1170 0 451 -21 748 -83 1170 -307 2083 -1425 3960 -3114 5228
-1190 893 -2593 1430 -4095 1567 -159 14 -648 36 -745 33 -22 -1 -137 -5 -255
-9z m1502 -4781 c-20 -68 -410 -1390 -867 -2938 l-831 -2815 -412 -3 c-227 -1
-412 1 -412 4 0 4 1433 4866 1726 5857 5 16 34 17 419 17 l413 0 -36 -122z
m-3122 -1550 l0 -433 -1463 -640 c-804 -352 -1464 -644 -1467 -650 -3 -5 654
-299 1460 -652 l1465 -641 3 -435 2 -434 -1937 899 c-1066 495 -1944 905
-1951 911 -9 7 -12 86 -10 355 l3 346 1940 902 c1067 496 1943 903 1948 903 4
1 7 -194 7 -431z m5538 -442 c1049 -481 1924 -882 1945 -892 l37 -18 -2 -375
-3 -376 -1880 -862 c-1034 -474 -1910 -875 -1947 -892 l-68 -30 0 433 0 434
1505 643 c828 354 1505 647 1505 650 0 4 -676 297 -1502 651 l-1503 644 -3
432 c-1 238 0 432 4 432 3 0 864 -393 1912 -874z"/>
</g>
</svg>
