<?xml version="1.0" standalone="no"?>
<svg version="1.0" xmlns="http://www.w3.org/2000/svg" width="1600pt" height="1600pt" viewBox="0 0 1600 1600" preserveAspectRatio="xMidYMid meet">
<g transform="translate(0,1600) scale(0.1,-0.1)" fill="#6868AC" stroke="#FFFFFF">
<path d="M7700 15989 c-1713 -63 -3364 -679 -4705 -1754 -485 -389 -959 -873 -1336 -1365 -1518 -1982 -2026 -4545 -1378 -6955 550 -2042 1904 -3797 3744 -4852 961 -551 2054 -903 3160 -1017 513 -53 1117 -53 1630 0 2223 229 4243 1374 5587 3166 1279 1704 1823 3873 1502 5988 -314 2071 -1432 3940 -3109 5197 -1191 893 -2615 1438 -4098 1568 -172 15 -641 36 -742 33 -27 -1 -142 -5 -255 -9z m760 -2074 c1286 -100 2481 -600 3439 -1439 161 -141 446 -426 587 -587 943 -1077 1454 -2446 1454 -3894 0 -1239 -367 -2404 -1073 -3410 -324 -460 -779 -937 -1223 -1281 -849 -659 -1804 -1056 -2879 -1199 -341 -45 -858 -58 -1215 -30 -1401 109 -2705 699 -3681 1665 -101 99 -120 123 -139 175 -44 121 -13 270 76 359 53 53 146 95 216 99 l56 2 158 -155 c306 -298 590 -525 909 -727 738 -466 1555 -737 2450 -814 168 -14 642 -14 810 0 895 77 1712 348 2450 814 647 408 1235 994 1643 1638 476 752 749 1573 823 2474 14 180 14 610 0 790 -73 893 -346 1718 -814 2460 -318 503 -745 974 -1227 1352 -822 644 -1827 1032 -2885 1113 -184 15 -602 15 -789 0 -608 -46 -1176 -187 -1741 -432 -806 -349 -1520 -904 -2072 -1608 -583 -746 -960 -1647 -1082 -2592 -33 -248 -43 -417 -43 -688 0 -520 66 -991 207 -1479 l35 -124 -25 -43 c-80 -136 -274 -197 -419 -131 -72 33 -140 98 -170 161 -51 111 -151 593 -190 926 -41 339 -46 938 -11 1265 121 1142 524 2158 1213 3054 271 353 694 776 1058 1057 852 660 1803 1056 2884 1199 333 45 859 58 1210 30z m25 -2134 c1015 -136 1891 -635 2531 -1441 89 -113 253 -362 333 -507 233 -424 382 -889 448 -1398 25 -198 25 -682 0 -880 -116 -901 -512 -1699 -1143 -2305 -623 -597 -1364 -943 -2254 -1052 -139 -17 -651 -17 -790 0 -615 75 -1133 254 -1625 560 -458 286 -847 663 -1151 1119 -339 506 -540 1050 -621 1678 -25 198 -25 682 0 880 81 627 282 1172 621 1678 649 972 1682 1581 2863 1687 166 15 617 4 788 -19z"/>
<path d="M6265 9979 c-236 -23 -452 -125 -629 -297 -53 -52 -146 -163 -146 -176 0 -2 82 -6 183 -8 171 -3 185 -5 230 -28 208 -106 208 -414 0 -520 -47 -25 -53 -25 -318 -28 l-271 -3 7 -87 c24 -299 180 -576 429 -762 74 -56 258 -145 350 -170 164 -44 403 -42 567 6 99 28 253 105 334 164 228 170 373 410 424 705 13 77 6 277 -14 372 -20 96 -74 234 -125 318 -215 358 -606 555 -1021 514z"/>
<path d="M9548 9980 c-280 -27 -541 -169 -721 -390 l-68 -85 203 -5 c191 -5 206 -6 251 -30 208 -106 208 -414 0 -520 -47 -25 -52 -25 -337 -28 l-289 -3 6 -77 c29 -366 260 -705 592 -868 483 -236 1065 -71 1360 386 217 335 217 794 0 1130 -128 199 -329 360 -541 434 -138 49 -312 70 -456 56z"/>
</g>
</svg>
